<svg xmlns="http://www.w3.org/2000/svg" viewBox="0 0 180 48" fill="none">
  <defs>
    <!-- Gradients -->
    <linearGradient id="blueG" x1="6" y1="8" x2="32" y2="32" gradientUnits="userSpaceOnUse">
      <stop offset="0%" stop-color="#1774e6"/>
      <stop offset="100%" stop-color="#0d7de6"/>
    </linearGradient>
    <linearGradient id="tealG" x1="12" y1="12" x2="38" y2="36" gradientUnits="userSpaceOnUse">
      <stop offset="0%" stop-color="#28d5c9"/>
      <stop offset="100%" stop-color="#14b8a6"/>
    </linearGradient>
  </defs>

  <!-- Icon Mark (scaled down to fit 36x36 at offset (6,6)) -->
  <g transform="translate(6, 6) scale(0.5625)">
    <!-- Left link / 'D' element -->
    <path d="M24 19H32C37.5 19 42 23.5 42 29C42 34.5 37.5 39 32 39H24C21.2 39 19 36.8 19 34V24C19 21.2 21.2 19 24 19Z" 
          stroke="url(#blueG)" stroke-width="4.5" stroke-linecap="round" stroke-linejoin="round" />

    <!-- Right link / 'L' connection -->
    <path d="M40 45H32C26.5 45 22 40.5 22 35C22 29.5 26.5 25 32 25H40C42.8 25 45 27.2 45 30V40C45 42.8 42.8 45 40 45Z" 
          stroke="url(#tealG)" stroke-width="4.5" stroke-linecap="round" stroke-linejoin="round" />
          
    <!-- Connecting link highlight node -->
    <circle cx="32" cy="32" r="3" fill="#ffffff" />
  </g>

  <!-- Typography -->
  <text x="56" y="31" font-family="Inter, system-ui, -apple-system, sans-serif" font-size="20" font-weight="800" letter-spacing="-0.5px">
    <tspan fill="#ffffff">Deck</tspan><tspan fill="#28d5c9">Link</tspan>
  </text>
</svg>
